<svg xmlns="http://www.w3.org/2000/svg" xmlns:xlink="http://www.w3.org/1999/xlink" width="1024" zoomAndPan="magnify" viewBox="0 0 768 767.999994" height="1024" preserveAspectRatio="xMidYMid meet" version="1.0"><defs><g/></defs><rect x="-76.8" width="921.6" fill="#ffffff" y="-76.799999" height="921.599993" fill-opacity="1"/><rect x="-76.8" width="921.6" fill="#ffffff" y="-76.799999" height="921.599993" fill-opacity="1"/><rect x="-76.8" width="921.6" fill="#ffffff" y="-76.799999" height="921.599993" fill-opacity="1"/><g fill="#00bd79" fill-opacity="1"><g transform="translate(69.017577, 557.999992)"><g><path d="M 231.8125 0 L 215.984375 -60.203125 L 111.625 -60.203125 L 95.359375 0 L 0 0 L 104.8125 -322.5625 L 220.609375 -322.5625 L 326.734375 0 Z M 197.96875 -131.390625 L 184.125 -184.125 C 180.90625 -195.84375 176.988281 -211.003906 172.375 -229.609375 C 167.757812 -248.210938 164.71875 -261.546875 163.25 -269.609375 C 161.9375 -262.140625 159.335938 -249.832031 155.453125 -232.6875 C 151.578125 -215.550781 142.972656 -181.785156 129.640625 -131.390625 Z M 197.96875 -131.390625 "/></g></g></g><g fill="#005935" fill-opacity="1"><g transform="translate(395.748034, 557.999992)"><g><path d="M 34.71875 -321.234375 L 146.78125 -321.234375 C 190.425781 -321.234375 222.832031 -314.75 244 -301.78125 C 265.164062 -288.820312 275.75 -268.648438 275.75 -241.265625 C 275.75 -223.242188 271.132812 -207.859375 261.90625 -195.109375 C 252.6875 -182.367188 240.53125 -174.171875 225.4375 -170.515625 L 225.4375 -168.3125 C 245.363281 -163.039062 259.789062 -154.25 268.71875 -141.9375 C 277.65625 -129.632812 282.125 -113.671875 282.125 -94.046875 C 282.125 -64.890625 271.175781 -41.925781 249.28125 -25.15625 C 227.382812 -8.382812 197.535156 0 159.734375 0 L 34.71875 0 Z M 121.515625 -197.96875 L 147.65625 -197.96875 C 160.101562 -197.96875 169.734375 -200.53125 176.546875 -205.65625 C 183.359375 -210.789062 186.765625 -218.410156 186.765625 -228.515625 C 186.765625 -246.535156 173.144531 -255.546875 145.90625 -255.546875 L 121.515625 -255.546875 Z M 121.515625 -134.46875 L 121.515625 -67.015625 L 152.046875 -67.015625 C 179.148438 -67.015625 192.703125 -78.441406 192.703125 -101.296875 C 192.703125 -111.984375 189.078125 -120.179688 181.828125 -125.890625 C 174.578125 -131.609375 164.066406 -134.46875 150.296875 -134.46875 Z M 121.515625 -134.46875 "/></g></g></g></svg>